<?xml version="1.0" encoding="UTF-8" standalone="no"?>
<!-- Created with Inkscape (http://www.inkscape.org/) -->

<svg
   xmlns:dc="http://purl.org/dc/elements/1.1/"
   xmlns:cc="http://creativecommons.org/ns#"
   xmlns:rdf="http://www.w3.org/1999/02/22-rdf-syntax-ns#"
   xmlns:svg="http://www.w3.org/2000/svg"
   xmlns="http://www.w3.org/2000/svg"
   xmlns:sodipodi="http://sodipodi.sourceforge.net/DTD/sodipodi-0.dtd"
   xmlns:inkscape="http://www.inkscape.org/namespaces/inkscape"
   width="1780.7791mm"
   height="1780.7791mm"
   viewBox="0 0 6309.847 6309.8469"
   id="svg2"
   version="1.1"
   inkscape:version="0.91 r13725"
   sodipodi:docname="herecomes_logo.svg">
  <defs
     id="defs4" />
  <sodipodi:namedview
     id="base"
     pagecolor="#ffffff"
     bordercolor="#666666"
     borderopacity="1.0"
     inkscape:pageopacity="0.0"
     inkscape:pageshadow="2"
     inkscape:zoom="0.12757837"
     inkscape:cx="3154.9235"
     inkscape:cy="3154.9235"
     inkscape:document-units="px"
     inkscape:current-layer="layer2"
     showgrid="false"
     inkscape:window-width="1680"
     inkscape:window-height="987"
     inkscape:window-x="1672"
     inkscape:window-y="-8"
     inkscape:window-maximized="1"
     fit-margin-top="0"
     fit-margin-left="0"
     fit-margin-right="0"
     fit-margin-bottom="0" />
  <metadata
     id="metadata7">
    <rdf:RDF>
      <cc:Work
         rdf:about="">
        <dc:format>image/svg+xml</dc:format>
        <dc:type
           rdf:resource="http://purl.org/dc/dcmitype/StillImage" />
        <dc:title></dc:title>
      </cc:Work>
    </rdf:RDF>
  </metadata>
  <g
     inkscape:label="Hintergrund"
     inkscape:groupmode="layer"
     id="layer1"
     transform="translate(10428.713,8965.281)">
    <g
       inkscape:groupmode="layer"
       id="layer2"
       inkscape:label="Stepper">
      <flowRoot
         xml:space="preserve"
         id="flowRoot4614"
         style="font-style:normal;font-weight:normal;font-size:180px;line-height:125%;font-family:sans-serif;letter-spacing:0px;word-spacing:0px;fill:#000000;fill-opacity:1;stroke:none;stroke-width:1px;stroke-linecap:butt;stroke-linejoin:miter;stroke-opacity:1"><flowRegion
           id="flowRegion4616"><rect
             id="rect4618"
             width="1666.4019"
             height="1217.2545"
             x="-13428.856"
             y="-4468.6909"
             style="font-size:180px" /></flowRegion><flowPara
           id="flowPara4620" /></flowRoot>      <flowRoot
         xml:space="preserve"
         id="flowRoot4622"
         style="font-style:normal;font-weight:normal;font-size:25px;line-height:125%;font-family:sans-serif;letter-spacing:0px;word-spacing:0px;fill:#000000;fill-opacity:1;stroke:none;stroke-width:1px;stroke-linecap:butt;stroke-linejoin:miter;stroke-opacity:1"><flowRegion
           id="flowRegion4624"><rect
             id="rect4626"
             width="930.84167"
             height="689.99457"
             x="-13324.706"
             y="-4605.3882" /></flowRegion><flowPara
           id="flowPara4628" /></flowRoot>      <circle
         style="opacity:1;fill:none;fill-opacity:1;stroke:#c1121c;stroke-width:700;stroke-linecap:round;stroke-miterlimit:10;stroke-dasharray:none;stroke-dashoffset:0;stroke-opacity:1"
         id="path4185"
         cx="-7273.7891"
         cy="-5810.3574"
         r="2669.6404" />
      <g
         id="g4194"
         transform="matrix(2.1412629,0,0,2.1412629,-6623.4098,-6887.2385)"
         style="fill:#08407b;fill-opacity:1">
        <title
           id="title4196">Layer 1</title>
        <g
           id="svg_1"
           style="fill:#08407b;fill-opacity:1">
          <path
             id="path4536"
             d="m 408.68048,206.14777 c 41.96622,3.39982 78.3169,-27.78019 81.71689,-69.59896 3.24966,-41.821423 -27.93009,-78.172162 -69.8963,-81.719312 -41.5242,-3.102509 -78.16968,28.0774 -81.27469,69.896272 -3.54465,41.52412 27.63275,78.17207 69.4541,81.422"
             inkscape:connector-curvature="0"
             style="fill:#08407b;fill-opacity:1;fill-rule:nonzero" />
          <path
             id="path4538"
             d="m 344.3996,237.32768 c 14.92563,-10.49154 33.10101,-17.43594 53.34479,-15.66495 26.00903,2.07096 47.28692,18.17797 60.29141,37.82964 l 76.54599,151.76294 104.47351,71.96463 c 8.86523,6.79684 14.48071,17.87811 13.29925,29.99588 -1.47894,18.76733 -17.88067,32.80609 -36.64807,31.17987 -5.76288,-0.29486 -10.49151,-2.66034 -15.66241,-5.02362 l -113.93332,-78.4668 c -3.54465,-2.80768 -6.35239,-6.35483 -8.71808,-10.04931 l -28.51953,-56.89179 -34.42975,151.3183 134.61923,159.00207 c 3.10242,4.87604 5.17059,10.63892 6.35486,16.40168 l 36.35071,191.95562 c -0.29474,4.284 0.29468,6.94434 0,10.34418 -2.06842,28.66693 -26.89331,49.35535 -55.11804,47.28693 -23.49628,-1.92096 -40.78476,-19.21204 -46.25278,-40.63727 l -34.28259,-179.83777 -109.49942,-119.6936 -25.26954,116.591 c -0.8843,5.46564 -8.12591,16.99383 -10.19433,21.57263 L 206.08603,945.29803 c -10.34422,16.10706 -27.93006,26.45136 -47.87905,24.82758 -28.51954,-2.07087 -49.64999,-26.89582 -47.28694,-55.26801 0.59206,-7.97864 3.9918,-16.40179 6.94698,-22.16467 l 97.52901,-163.5835 81.42202,-360.55978 -53.19975,43.00046 -28.22227,128.4115 c -3.84188,16.55175 -18.76745,29.99841 -36.35328,28.66967 -19.06211,-1.47894 -32.95349,-17.88079 -31.47465,-36.94281 0,-1.47894 0.29474,-2.95532 0.59203,-4.72894 L 181.55577,377.2677 c 2.06831,-6.35501 5.46806,-12.11789 10.49155,-16.55182 L 344.3996,237.32768 Z"
             inkscape:connector-curvature="0"
             style="fill:#08407b;fill-opacity:1;fill-rule:nonzero" />
        </g>
      </g>
      <g
         transform="matrix(1.7880109,0,0,1.7880109,-7663.7679,-6544.4373)"
         id="g4210"
         style="fill:#9eb003;fill-opacity:1">
        <title
           id="title4212">Layer 1</title>
        <g
           id="g4214"
           style="fill:#9eb003;fill-opacity:1">
          <path
             style="fill:#9eb003;fill-opacity:1;fill-rule:nonzero"
             inkscape:connector-curvature="0"
             d="m 408.68048,206.14777 c 41.96622,3.39982 78.3169,-27.78019 81.71689,-69.59896 3.24966,-41.821423 -27.93009,-78.172162 -69.8963,-81.719312 -41.5242,-3.102509 -78.16968,28.0774 -81.27469,69.896272 -3.54465,41.52412 27.63275,78.17207 69.4541,81.422"
             id="path4216" />
          <path
             style="fill:#9eb003;fill-opacity:1;fill-rule:nonzero"
             inkscape:connector-curvature="0"
             d="m 344.3996,237.32768 c 14.92563,-10.49154 33.10101,-17.43594 53.34479,-15.66495 26.00903,2.07096 47.28692,18.17797 60.29141,37.82964 l 76.54599,151.76294 104.47351,71.96463 c 8.86523,6.79684 14.48071,17.87811 13.29925,29.99588 -1.47894,18.76733 -17.88067,32.80609 -36.64807,31.17987 -5.76288,-0.29486 -10.49151,-2.66034 -15.66241,-5.02362 l -113.93332,-78.4668 c -3.54465,-2.80768 -6.35239,-6.35483 -8.71808,-10.04931 l -28.51953,-56.89179 -34.42975,151.3183 134.61923,159.00207 c 3.10242,4.87604 5.17059,10.63892 6.35486,16.40168 l 36.35071,191.95562 c -0.29474,4.284 0.29468,6.94434 0,10.34418 -2.06842,28.66693 -26.89331,49.35535 -55.11804,47.28693 -23.49628,-1.92096 -40.78476,-19.21204 -46.25278,-40.63727 l -34.28259,-179.83777 -109.49942,-119.6936 -25.26954,116.591 c -0.8843,5.46564 -8.12591,16.99383 -10.19433,21.57263 L 206.08603,945.29803 c -10.34422,16.10706 -27.93006,26.45136 -47.87905,24.82758 -28.51954,-2.07087 -49.64999,-26.89582 -47.28694,-55.26801 0.59206,-7.97864 3.9918,-16.40179 6.94698,-22.16467 l 97.52901,-163.5835 81.42202,-360.55978 -53.19975,43.00046 -28.22227,128.4115 c -3.84188,16.55175 -18.76745,29.99841 -36.35328,28.66967 -19.06211,-1.47894 -32.95349,-17.88079 -31.47465,-36.94281 0,-1.47894 0.29474,-2.95532 0.59203,-4.72894 L 181.55577,377.2677 c 2.06831,-6.35501 5.46806,-12.11789 10.49155,-16.55182 L 344.3996,237.32768 Z"
             id="path4218" />
        </g>
      </g>
      <g
         id="g4220"
         transform="matrix(1.2102905,0,0,1.2102905,-9247.1243,-5845.7237)"
         style="fill:#b10f23;fill-opacity:1">
        <title
           id="title4222">Layer 1</title>
        <g
           id="g4224"
           transform="translate(0,-114.09232)"
           style="fill:#b10f23;fill-opacity:1">
          <path
             id="path4226"
             d="m 408.68048,206.14777 c 41.96622,3.39982 78.3169,-27.78019 81.71689,-69.59896 3.24966,-41.821423 -27.93009,-78.172162 -69.8963,-81.719312 -41.5242,-3.102509 -78.16968,28.0774 -81.27469,69.896272 -3.54465,41.52412 27.63275,78.17207 69.4541,81.422"
             inkscape:connector-curvature="0"
             style="fill:#b10f23;fill-opacity:1;fill-rule:nonzero" />
          <path
             id="path4228"
             d="m 344.3996,237.32768 c 14.92563,-10.49154 33.10101,-17.43594 53.34479,-15.66495 26.00903,2.07096 47.28692,18.17797 60.29141,37.82964 l 76.54599,151.76294 104.47351,71.96463 c 8.86523,6.79684 14.48071,17.87811 13.29925,29.99588 -1.47894,18.76733 -17.88067,32.80609 -36.64807,31.17987 -5.76288,-0.29486 -10.49151,-2.66034 -15.66241,-5.02362 l -113.93332,-78.4668 c -3.54465,-2.80768 -6.35239,-6.35483 -8.71808,-10.04931 l -28.51953,-56.89179 -34.42975,151.3183 134.61923,159.00207 c 3.10242,4.87604 5.17059,10.63892 6.35486,16.40168 l 36.35071,191.95562 c -0.29474,4.284 0.29468,6.94434 0,10.34418 -2.06842,28.66693 -26.89331,49.35535 -55.11804,47.28693 -23.49628,-1.92096 -40.78476,-19.21204 -46.25278,-40.63727 l -34.28259,-179.83777 -109.49942,-119.6936 -25.26954,116.591 c -0.8843,5.46564 -8.12591,16.99383 -10.19433,21.57263 L 206.08603,945.29803 c -10.34422,16.10706 -27.93006,26.45136 -47.87905,24.82758 -28.51954,-2.07087 -49.64999,-26.89582 -47.28694,-55.26801 0.59206,-7.97864 3.9918,-16.40179 6.94698,-22.16467 l 97.52901,-163.5835 81.42202,-360.55978 -53.19975,43.00046 -28.22227,128.4115 c -3.84188,16.55175 -18.76745,29.99841 -36.35328,28.66967 -19.06211,-1.47894 -32.95349,-17.88079 -31.47465,-36.94281 0,-1.47894 0.29474,-2.95532 0.59203,-4.72894 L 181.55577,377.2677 c 2.06831,-6.35501 5.46806,-12.11789 10.49155,-16.55182 L 344.3996,237.32768 Z"
             inkscape:connector-curvature="0"
             style="fill:#b10f23;fill-opacity:1;fill-rule:nonzero" />
        </g>
      </g>
      <g
         transform="matrix(1.4213836,0,0,1.4213836,-8504.0163,-6188.6565)"
         id="g4230"
         style="fill:#f4b506;fill-opacity:1">
        <title
           id="title4232">Layer 1</title>
        <g
           id="g4234"
           style="fill:#f4b506;fill-opacity:1">
          <path
             style="fill:#f4b506;fill-opacity:1;fill-rule:nonzero"
             inkscape:connector-curvature="0"
             d="m 408.68048,206.14777 c 41.96622,3.39982 78.3169,-27.78019 81.71689,-69.59896 3.24966,-41.821423 -27.93009,-78.172162 -69.8963,-81.719312 -41.5242,-3.102509 -78.16968,28.0774 -81.27469,69.896272 -3.54465,41.52412 27.63275,78.17207 69.4541,81.422"
             id="path4236" />
          <path
             style="fill:#f4b506;fill-opacity:1;fill-rule:nonzero"
             inkscape:connector-curvature="0"
             d="m 344.3996,237.32768 c 14.92563,-10.49154 33.10101,-17.43594 53.34479,-15.66495 26.00903,2.07096 47.28692,18.17797 60.29141,37.82964 l 76.54599,151.76294 104.47351,71.96463 c 8.86523,6.79684 14.48071,17.87811 13.29925,29.99588 -1.47894,18.76733 -17.88067,32.80609 -36.64807,31.17987 -5.76288,-0.29486 -10.49151,-2.66034 -15.66241,-5.02362 l -113.93332,-78.4668 c -3.54465,-2.80768 -6.35239,-6.35483 -8.71808,-10.04931 l -28.51953,-56.89179 -34.42975,151.3183 134.61923,159.00207 c 3.10242,4.87604 5.17059,10.63892 6.35486,16.40168 l 36.35071,191.95562 c -0.29474,4.284 0.29468,6.94434 0,10.34418 -2.06842,28.66693 -26.89331,49.35535 -55.11804,47.28693 -23.49628,-1.92096 -40.78476,-19.21204 -46.25278,-40.63727 l -34.28259,-179.83777 -109.49942,-119.6936 -25.26954,116.591 c -0.8843,5.46564 -8.12591,16.99383 -10.19433,21.57263 L 206.08603,945.29803 c -10.34422,16.10706 -27.93006,26.45136 -47.87905,24.82758 -28.51954,-2.07087 -49.64999,-26.89582 -47.28694,-55.26801 0.59206,-7.97864 3.9918,-16.40179 6.94698,-22.16467 l 97.52901,-163.5835 81.42202,-360.55978 -53.19975,43.00046 -28.22227,128.4115 c -3.84188,16.55175 -18.76745,29.99841 -36.35328,28.66967 -19.06211,-1.47894 -32.95349,-17.88079 -31.47465,-36.94281 0,-1.47894 0.29474,-2.95532 0.59203,-4.72894 L 181.55577,377.2677 c 2.06831,-6.35501 5.46806,-12.11789 10.49155,-16.55182 L 344.3996,237.32768 Z"
             id="path4238" />
        </g>
      </g>
      <text
         sodipodi:linespacing="125%"
         id="text4638"
         y="-4246.9775"
         x="-8381.2119"
         style="font-style:normal;font-weight:normal;font-size:358.40750122px;line-height:125%;font-family:sans-serif;letter-spacing:0px;word-spacing:0px;fill:#000000;fill-opacity:1;stroke:none;stroke-width:1px;stroke-linecap:butt;stroke-linejoin:miter;stroke-opacity:1"
         xml:space="preserve"><tspan
           style="font-style:normal;font-variant:normal;font-weight:bold;font-stretch:normal;font-family:sans-serif;-inkscape-font-specification:'sans-serif Bold'"
           y="-4246.9775"
           x="-8381.2119"
           id="tspan4640"
           sodipodi:role="line">herecomes</tspan></text>
    </g>
    <circle
       style="opacity:1;fill:none;fill-opacity:1;stroke:#000000;stroke-width:50.00000381;stroke-linecap:round;stroke-miterlimit:10;stroke-dasharray:none;stroke-dashoffset:0;stroke-opacity:1"
       id="path4187"
       cx="-7273.7891"
       cy="-5810.3574"
       r="3129.9236" />
  </g>
</svg>
